<?xml version="1.0" encoding="UTF-8"?>
<svg id="logo_2" data-name="logo 2" xmlns="http://www.w3.org/2000/svg" viewBox="0 0 1466.28 1392.84">
  <defs>
    <style>
      .cls-1 {
        fill: none;
        stroke: #000;
        stroke-miterlimit: 10;
        stroke-width: 31.57px;
      }
    </style>
  </defs>
  <path class="cls-1" d="m127.9,383.91c0,117.17,102.66,212.16,229.31,212.16,63.32,0,120.65-23.75,162.14-62.14,41.5-38.39,67.16-91.43,67.16-150.02,0-117.17-102.66-212.16-229.31-212.16s-229.31,94.99-229.31,212.16Z"/>
  <path class="cls-1" d="m1400.17,171.94c-260-5.71-311.59,357.3-311.59,357.3l-60.65,401.3-126.25-276.83-115.26,279.49-96.65-283.8-94.05.2"/>
  <path class="cls-1" d="m585.73,401.42l3.84,248.27,7.44,521.75s-318.82,97.6-445.9-136.23c-20.72-38.13-150.07-373.66,422.5-389.91"/>
</svg>