<?xml version="1.0" encoding="UTF-8"?>
<svg id="logo_2" data-name="logo 2" xmlns="http://www.w3.org/2000/svg" viewBox="0 0 2000 1392.84">
  <defs>
    <style>
      .cls-1 {
        stroke-width: 51.76px;
      }

      .cls-1, .cls-2, .cls-3 {
        fill: none;
        stroke-miterlimit: 10;
      }

      .cls-1, .cls-3 {
        stroke: #4e98d9;
      }

      .cls-4 {
        stroke-width: 0px;
      }

      .cls-2 {
        stroke: #f22ebe;
        stroke-width: 51.76px;
      }

      .cls-3 {
        stroke-width: 53.4px;
      }
    </style>
  </defs>
  <g>
    <path class="cls-4" d="m767.15,1308.99c-20.47.11-36.64-4.82-48.52-14.78-11.88-9.95-19.1-25.71-21.65-47.28l8.44-.91c3.48,19.83,9.99,33.86,19.51,42.09,9.52,8.24,23.76,12.3,42.73,12.2,15.77-.08,28.24-4.14,37.39-12.19,9.16-8.04,13.7-18.8,13.63-32.29-.05-9.63-1.92-17.23-5.61-22.8-3.69-5.57-9.49-9.97-17.39-13.2-7.91-3.23-18.15-6.07-30.74-8.51-10.53-2.06-20.02-4.9-28.49-8.52-8.47-3.61-15.21-9.12-20.22-16.51-5.02-7.39-7.56-17.63-7.62-30.74-.06-10.79,2.38-20.43,7.31-28.94,4.93-8.5,11.75-15.23,20.45-20.19,8.71-4.96,18.69-7.47,29.96-7.52,16.14-.08,29.36,4.33,39.64,13.23,10.28,8.91,16.59,22.22,18.94,39.93l-7.88,1.2c-2.53-15.98-7.94-27.6-16.23-34.88-8.3-7.28-19.77-10.88-34.42-10.8-14.84.08-26.73,4.47-35.7,13.19-8.97,8.72-13.41,20.3-13.34,34.75.06,10.6,2.07,19.02,6.04,25.25,3.98,6.24,9.63,10.98,16.97,14.22,7.34,3.24,16.18,5.89,26.52,7.95,14.66,2.81,26.41,6.27,35.26,10.36,8.84,4.1,15.26,9.51,19.24,16.23,3.98,6.73,5.99,15.48,6.05,26.27.06,10.79-2.43,20.15-7.46,28.07-5.03,7.93-12.09,14.08-21.17,18.46-9.09,4.38-19.64,6.6-31.65,6.67Z"/>
    <path class="cls-4" d="m1040.96,1100.37l-.52,7.52-65.06.34,1.03,197.66-8.73.05-1.03-197.66-66.47.35-.04-7.51,140.82-.73Z"/>
    <path class="cls-4" d="m1272.74,1099.17l8.73-.05.83,104.89c.37,34.29-5.51,59.95-17.62,76.96-12.12,17.02-31.69,25.6-58.73,25.74-24.78.13-42.94-7-54.47-21.39-11.53-14.39-17.37-37.19-17.53-68.4l-.61-117.03,9.29-.05.61,116.74c.15,29.09,5.14,49.92,14.97,62.49,9.82,12.57,25.73,18.8,47.69,18.68,24.97-.13,42.58-7.83,52.83-23.1,10.25-15.27,15.19-38.7,14.84-70.3l-.83-105.18Z"/>
    <path class="cls-4" d="m1397.16,1303.69l-1.07-205.17,43.09-.22c76.23-.4,114.52,33.31,114.87,101.12.17,33.14-8.95,58.71-27.35,76.72-18.4,18.01-45.44,27.11-81.11,27.3l-48.44.25Zm8.69-7.85l38.87-.2c67.22-.35,100.66-32.41,100.33-96.17-.16-31.59-8.79-55.1-25.85-70.52-17.08-15.42-43.26-23.04-78.56-22.85l-35.77.19.99,189.56Z"/>
    <path class="cls-4" d="m1664.43,1302.3l-1.07-205.17,8.73-.05,1.07,205.17-8.73.05Z"/>
    <path class="cls-4" d="m1868.91,1303.27c-17.46.09-32.65-3.78-45.54-11.61-12.9-7.83-22.91-19.24-30.03-34.23-7.12-14.99-10.73-33.18-10.85-54.56-.11-21.38,3.78-40.33,11.67-56.84,7.89-16.51,18.72-29.43,32.47-38.75,13.75-9.32,29.36-14.02,46.82-14.11,16.71-.09,31.33,4.08,43.86,12.49,12.53,8.42,22.31,20.16,29.33,35.25,7.02,15.09,10.59,32.84,10.7,53.26.12,22.16-3.64,41.39-11.25,57.71-7.62,16.32-18.06,28.95-31.35,37.88-13.29,8.93-28.57,13.44-45.84,13.53Zm-.05-8.96c15.77-.08,29.64-4.1,41.62-12.06,11.97-7.96,21.3-19.47,27.98-34.53,6.68-15.06,9.97-33.28,9.85-54.67-.1-18.88-3.24-35.1-9.41-48.64-6.17-13.55-14.82-24-25.93-31.36-11.12-7.36-24.18-11-39.2-10.92-16.15.08-30.44,4.3-42.88,12.65-12.45,8.35-22.15,20.11-29.11,35.26-6.96,15.16-10.39,32.95-10.28,53.37.15,29.48,7.12,52.03,20.91,67.66,13.79,15.63,32.6,23.38,56.45,23.26Z"/>
  </g>
  <g>
    <path class="cls-3" d="m1437.31,702.62c-68.25-61.07-173.09-55.24-234.16,13.01-61.07,68.26-55.24,173.1,13.01,234.16,56.84,50.85,139.02,55.28,200.2,15.94l92.43,19.24-35.04-81.98c34.36-65.68,21.32-148.69-36.44-200.37Z"/>
    <g>
      <path class="cls-2" d="m47.01,332.33c0,137.23,120.24,248.48,268.56,248.48,74.16,0,141.3-27.81,189.9-72.78,48.6-44.97,78.66-107.09,78.66-175.7,0-137.23-120.24-248.48-268.56-248.48S47.01,195.09,47.01,332.33Z"/>
      <path class="cls-2" d="m583.21,354.14l4.49,290.77,8.71,611.08s-373.4,114.31-522.24-159.55c-24.27-44.66-175.6-455.42,494.99-474.45"/>
      <path class="cls-1" d="m612.93,622.82l99.51-.21,99.86,321.75,95.72-266.9,119.24,262.14,98.84-434.71c11.77-40.9,72.6-384.89,341.75-365.93"/>
    </g>
    <polyline class="cls-1" points="1540.62 624.14 1640.48 945.89 1736.21 678.98 1855.44 941.12 1929.09 622.45"/>
  </g>
</svg>